<?xml version="1.0" encoding="utf-8"?>
<!-- Generator: Adobe Illustrator 16.0.4, SVG Export Plug-In . SVG Version: 6.00 Build 0)  -->
<!DOCTYPE svg PUBLIC "-//W3C//DTD SVG 1.1//EN" "http://www.w3.org/Graphics/SVG/1.1/DTD/svg11.dtd">
<svg version="1.1" id="Calque_1" xmlns="http://www.w3.org/2000/svg" xmlns:xlink="http://www.w3.org/1999/xlink" x="0px" y="0px"
	 width="313px" height="341px" viewBox="143.14 251.445 313 341" enable-background="new 143.14 251.445 313 341"
	 xml:space="preserve">
<path d="M432.357,294.62l-30.736-30.736c-2.104-2.104-5.517-2.104-7.621,0c-2.105,2.104-2.104,5.517,0,7.621l30.735,30.736
	c10.75,10.75,10.75,28.241,0,38.992c-5.156,5.157-12.099,7.931-19.513,7.829c-7.425-0.108-14.411-3.064-19.67-8.323L345.214,300.4
	c-14.952-14.953-39.248-14.986-54.158-0.076c-14.952,14.952-14.952,39.282,0,54.234l14.463,14.463
	c-11.294-3.92-23.288-5.968-35.596-5.968c-28.918,0-56.107,11.262-76.555,31.711c-42.213,42.213-42.213,110.897,0,153.11
	c20.448,20.448,47.636,31.71,76.555,31.71c28.918,0,56.106-11.262,76.555-31.71c20.449-20.449,31.711-47.637,31.711-76.556
	s-11.262-56.107-31.711-76.556c-0.479-0.48-0.968-0.952-1.456-1.422l-46.345-46.406c-10.75-10.75-10.75-28.241,0-38.991
	c10.708-10.708,28.165-10.674,38.916,0.076l40.337,40.337c7.253,7.253,16.89,11.33,27.135,11.479
	c10.35,0.143,20.057-3.75,27.291-10.984C447.309,333.902,447.309,309.572,432.357,294.62z M323.107,389.588
	c-13.028,1.105-25.714,3.874-37.803,8.218c-0.253-0.129-0.517-0.246-0.796-0.336c-23.522-7.571-48.157-9.176-72.185-4.821
	c16.609-12.215,36.597-18.817,57.601-18.817C289.098,373.833,307.423,379.337,323.107,389.588z M213.031,453.377
	c-13.311-0.415-26.589,0.953-39.565,4.085c0.818-5.747,2.154-11.434,3.996-16.987c0.095-0.027,0.191-0.054,0.286-0.086
	c18.928-6.619,35.603-9.148,52.875-7.936c-0.137,0.136-0.276,0.266-0.411,0.401C223.822,439.244,218.089,446.114,213.031,453.377z
	 M241.353,422.762c-0.014-0.002-0.026-0.006-0.039-0.008c-19.695-2.826-38.042-1.401-58.426,4.646
	c3.563-7.072,8.039-13.798,13.432-19.999c22.982-6.683,49.374-7.921,73.097-2.81C259.481,409.538,250.071,415.614,241.353,422.762z
	 M172.515,468.833c11.044-2.968,22.345-4.554,33.708-4.733c-10.363,17.974-16.847,37.933-19.016,58.833
	C176.937,506.477,172.04,487.599,172.515,468.833z M197.196,536.234c0.615-36.181,14.984-70.104,40.638-95.758
	c25.849-25.848,61.819-40.24,98.36-40.647c0.899,0.836,1.79,1.684,2.663,2.557c3.713,3.713,7.083,7.676,10.108,11.846
	c-72.546,5.642-130.589,62.914-137.204,135.345c-3.778-2.819-7.378-5.93-10.772-9.323
	C199.678,538.942,198.417,537.601,197.196,536.234z M362.478,440.549c-32.615,4.259-61.425,17.595-83.6,38.772
	c-23.108,22.068-37.21,51.084-40.958,84.129c-5.479-1.898-10.775-4.281-15.833-7.139c3.6-71.83,61.565-129.025,133.469-131.664
	C358.338,429.734,360.656,435.052,362.478,440.549z M359.726,509.376c-8.204-18.004-19.948-34.252-34.423-47.664
	c7.198-3.093,14.782-5.62,22.702-7.534c7.46,9.504,13.64,19.967,18.408,31.142C365.224,493.649,362.971,501.721,359.726,509.376z
	 M367.044,462.874c-2.27-3.787-4.704-7.472-7.302-11.041c1.839-0.292,3.694-0.548,5.563-0.776
	C366.122,454.935,366.704,458.878,367.044,462.874z M311.247,509.636c9.381,10.33,17.173,22.063,23.093,34.853
	c-15.606,13.777-34.923,22.076-55.589,23.92C281.772,543.981,293.64,522.472,311.247,509.636z M267.866,568.782
	c-6.609-0.136-13.111-0.923-19.428-2.337c3.174-31.25,16.655-58.426,37.512-78.659c6.295,4.23,12.199,8.946,17.667,14.091
	C283.92,516.859,270.837,541.317,267.866,568.782z M342.448,536.466c-11.098-22.434-27.632-41.674-48.193-56.054
	c6.327-5.138,13.197-9.707,20.549-13.646c17.088,14.869,30.383,33.892,38.488,55.148
	C350.163,527.048,346.541,531.919,342.448,536.466z"/>
</svg>
